<svg width="241" height="206" viewBox="0 0 241 206" fill="none" xmlns="http://www.w3.org/2000/svg">
<path d="M236.499 117.888L235.682 118.664L234.864 119.439L234.843 120.236L234.026 121.011L229.857 128.075L225.75 132.75L220.072 136.586L212.843 138.788L208.003 141.052L204.714 144.951L200.628 148.829L194.195 151.051L188.538 154.091L186.799 159.625L185.836 165.976L184.055 173.103L181.541 177.819L176.701 180.083L171.882 181.551L166.245 183.794L160.567 187.631L156.46 192.305L151.578 196.162L145.921 199.202L139.509 200.628L133.119 201.257L126.769 200.294L120.42 199.33L113.296 197.549L106.151 196.564L99.0261 194.784L91.8808 193.799L81.6133 190.341L72.98 185.333L64.3884 178.731L55.7551 173.722L48.6307 171.941L40.6264 173.325L32.5804 176.302L25.3515 178.503L17.5145 173.515L11.27 168.569L5.84247 162.848L4.50067 153.248L4.64695 147.672L4.77234 142.893L6.49032 138.156L8.22919 132.622L10.7223 128.702L14.0326 124.007L17.3221 120.108L20.6326 115.412L23.9638 109.92L27.316 103.632L31.4644 97.3645L35.571 92.6898L40.4739 88.0361L45.3977 82.5858L49.5252 77.1149L52.8564 71.6228L54.616 65.2926L51.5564 60.43L48.4551 57.1604L47.7633 53.157L53.5461 45.3382L60.7958 42.3402L69.5755 41.7735L78.3342 42.0033L81.4982 42.8834L86.2758 43.0088L90.2779 42.3167L93.5046 40.8071L95.1597 38.4595L96.0395 35.2944L96.9194 32.1291L99.3708 29.8023L100.188 29.0267L100.984 29.0475L101.781 29.0684L104.169 29.1311L106.558 29.1938L108.926 30.053L110.539 29.2982L113.787 26.9924L115.442 24.6445L117.097 22.2969L120.324 20.7873L124.284 21.6883L128.349 18.6068L130.863 13.8904L133.377 9.174L137.484 4.49961L141.403 6.99349L143.645 12.6318L145.888 18.2699L148.151 23.1116L151.189 28.7708L155.066 32.8578L159.885 31.3901L160.724 29.8178L162.337 29.0633L163.95 28.3085L165.543 28.3503L167.869 30.8024L169.357 34.8267L170.07 38.0336L173.171 41.3034L177.173 40.6113L179.499 43.0634L181.825 45.5157L184.926 48.7852L189.662 50.5035L194.419 51.4254L199.196 51.5507L203.136 53.2483L205.357 59.6829L205.127 68.4445L204.101 77.1852L203.892 85.1503L206.135 90.7884L211.604 94.9171L217.911 97.4739L223.401 100.806L227.278 104.893L230.359 108.959L233.418 113.822L236.499 117.888Z" fill="#1B333F" stroke="white" stroke-width="9" stroke-linecap="round" stroke-linejoin="round"/>
</svg>
